<svg width="253" height="386" viewBox="0 0 253 386" fill="none" xmlns="http://www.w3.org/2000/svg">
<g clip-path="url(#clip0_19_7)">
<path d="M73.4541 134.873C71.884 143.072 66.6325 149.604 59.7651 153.168C54.6867 147.329 52.2337 139.309 53.8038 131.11C55.3739 122.911 60.6254 116.378 67.4927 112.814C72.5712 118.654 75.0242 126.674 73.4541 134.873Z" fill="#83AA5E"/>
<path d="M59.7651 153.168L66.5586 117.692" stroke="#416338" stroke-width="0.85" stroke-miterlimit="10" stroke-linecap="round"/>
<path d="M37.7066 159.129C45.9056 160.7 53.9161 158.233 59.7651 153.168C56.2147 146.292 49.6686 141.049 41.4695 139.479C33.2705 137.909 25.2599 140.376 19.411 145.441C22.9614 152.317 29.5075 157.559 37.7066 159.129Z" fill="#83AA5E"/>
<path d="M59.765 153.168L24.2892 146.375" stroke="#416338" stroke-width="0.85" stroke-miterlimit="10" stroke-linecap="round"/>
<path d="M83.0403 163.418C82.0579 168.548 78.7711 172.632 74.4766 174.849C71.3049 171.202 69.7729 166.184 70.7417 161.063C71.7241 155.933 75.0108 151.85 79.3053 149.633C82.477 153.279 84.009 158.297 83.0403 163.418Z" fill="#83AA5E"/>
<path d="M74.4766 174.849L78.7356 152.67" stroke="#416338" stroke-width="0.85" stroke-miterlimit="10" stroke-linecap="round"/>
<path d="M60.6913 178.584C65.8214 179.566 70.8303 178.02 74.4766 174.849C72.26 170.554 68.1629 167.277 63.0464 166.285C57.9299 165.293 52.9075 166.848 49.2611 170.02C51.4777 174.314 55.5748 177.592 60.6913 178.584Z" fill="#83AA5E"/>
<path d="M74.4766 174.849L52.2935 170.612" stroke="#416338" stroke-width="0.85" stroke-miterlimit="10" stroke-linecap="round"/>
<path d="M27.541 123.504C32.2258 130.408 39.63 134.331 47.3589 134.885C49.7086 127.512 48.7896 119.169 44.1049 112.265C39.4202 105.361 32.0066 101.425 24.2871 100.884C21.9373 108.257 22.8563 116.601 27.541 123.504Z" fill="#83AA5E"/>
<path d="M29.8977 109.152L96.9837 208.017" stroke="#416338" stroke-width="0.85" stroke-miterlimit="10" stroke-linecap="round"/>
</g>
<path d="M107.528 365.719C114.891 366.618 121.647 361.32 122.618 353.885C123.589 346.45 118.407 339.694 111.044 338.795C103.682 337.896 96.9258 343.195 95.9548 350.629C94.9838 358.064 100.165 364.82 107.528 365.719Z" fill="#EEF4ED"/>
<path d="M103.81 365.829C96.2938 362.772 92.6367 354.2 95.6575 346.72C98.6783 339.24 107.246 335.655 114.762 338.712C122.278 341.769 125.922 350.337 122.907 357.804C119.891 365.271 111.313 368.881 103.81 365.829ZM114.019 340.55C107.522 337.908 100.111 341.018 97.5047 347.471C94.8986 353.924 98.0554 361.348 104.552 363.991C111.049 366.634 118.448 363.518 121.059 357.052C123.671 350.587 120.504 343.188 114.019 340.55Z" fill="#83AA5E"/>
<path d="M140.221 362.113L126.722 357.822C126.172 357.647 125.877 357.101 126.057 356.594C129.144 347.902 123.998 338.401 114.581 335.407C105.165 332.414 94.9972 337.046 91.9097 345.738C91.7294 346.245 91.1452 346.511 90.5954 346.336C90.0455 346.162 89.7498 345.616 89.9301 345.108C93.3782 335.402 104.732 330.229 115.249 333.572C125.765 336.915 131.138 346.856 128.361 356.309L140.884 360.291C141.434 360.466 141.73 361.011 141.55 361.519C141.369 362.026 140.785 362.293 140.235 362.118L140.221 362.113Z" fill="#83AA5E"/>
<path d="M147.381 378.46C142.727 376.797 140.263 371.694 141.873 367.101C143.483 362.509 148.59 360.112 153.231 361.77C157.872 363.429 160.354 368.524 158.739 373.129C157.125 377.734 152.035 380.123 147.381 378.46ZM152.569 363.66C148.975 362.376 145.033 364.215 143.787 367.771C142.54 371.326 144.454 375.273 148.048 376.557C151.641 377.842 155.575 375.984 156.821 372.429C158.068 368.873 156.149 364.939 152.569 363.66Z" fill="#83AA5E"/>
<path d="M161.49 374.431C160.947 374.25 160.659 373.694 160.842 373.181C162.855 367.549 159.646 361.339 153.67 359.345C149.812 358.058 145.511 358.82 142.45 361.345C142.018 361.703 141.365 361.658 140.981 361.242C140.598 360.827 140.636 360.208 141.068 359.85C144.684 356.878 149.766 355.975 154.33 357.497C161.38 359.849 165.191 367.18 162.808 373.851C162.624 374.364 162.043 374.629 161.499 374.448L161.49 374.431Z" fill="#83AA5E"/>
<path d="M159.332 365.032C159.049 364.936 158.797 364.706 158.691 364.41C158.5 363.883 158.788 363.33 159.331 363.167L165.023 361.355L167.879 353.351L142.576 344.769C142.035 344.585 141.75 344.026 141.934 343.51L149.54 322.19L120.088 312.201L113.171 331.587C112.987 332.103 112.407 332.369 111.867 332.185C111.326 332.002 111.041 331.443 111.225 330.927L118.477 310.6C118.661 310.084 119.241 309.818 119.781 310.002L151.194 320.656C151.734 320.839 152.02 321.399 151.836 321.914L144.229 343.234L169.532 351.816C170.073 352 170.358 352.559 170.174 353.075L166.822 362.471C166.721 362.755 166.484 362.993 166.181 363.078L160.001 365.027C159.779 365.097 159.54 365.088 159.337 365.019L159.332 365.032Z" fill="#83AA5E"/>
<path d="M143.868 323.551L128.907 318.23L123.932 332.388L138.892 337.709L143.868 323.551Z" fill="#83AA5E"/>
<path d="M171.071 332.456L167.481 331.09L162.065 349.008L165.655 350.374L171.071 332.456Z" fill="#83AA5E"/>
<g clip-path="url(#clip1_19_7)">
<path d="M201.403 27.9827C195.827 40.0871 196.583 53.4593 202.223 64.4398C214.249 61.5188 224.868 53.3845 230.443 41.2801C235.974 29.1651 235.263 15.8035 229.623 4.82302C217.597 7.74406 206.978 15.8783 201.403 27.9827Z" fill="#EEF4ED" stroke="#83AA5E" stroke-width="1.36" stroke-linecap="round" stroke-linejoin="round"/>
<path d="M202.206 64.4121L223.166 18.2337" stroke="#83AA5E" stroke-width="1.36" stroke-linecap="round" stroke-linejoin="round"/>
</g>
<defs>
<clipPath id="clip0_19_7">
<rect width="58.4689" height="130.162" fill="white" transform="translate(0.0961914 117.299) rotate(-34.1594)"/>
</clipPath>
<clipPath id="clip1_19_7">
<rect width="45" height="59" fill="white" transform="translate(229.261) rotate(58.4167)"/>
</clipPath>
</defs>
</svg>
