<?xml version="1.0" encoding="utf-8"?>
<!-- Generator: Adobe Illustrator 28.1.0, SVG Export Plug-In . SVG Version: 6.00 Build 0)  -->
<svg version="1.1" id="Layer_1" xmlns="http://www.w3.org/2000/svg" xmlns:xlink="http://www.w3.org/1999/xlink" x="0px" y="0px"
	 viewBox="0 0 163.2 64" style="enable-background:new 0 0 163.2 64;" xml:space="preserve">
<style type="text/css">
	.st0{fill:#416338;}
	.st1{fill:#6FAC58;}
	.st2{fill:#ECF4ED;}
</style>
<g>
	<path class="st0" d="M107.2,34c-2.8-1.5-5.1-3.6-6.6-6.3c-1.6-2.7-2.4-5.8-2.4-9.2c0-3.4,0.8-6.5,2.4-9.2c1.6-2.7,3.8-4.8,6.6-6.3
		c2.8-1.5,6.1-2.3,9.7-2.3c3.6,0,6.8,0.8,9.7,2.3c2.8,1.5,5.1,3.6,6.6,6.3c1.6,2.7,2.4,5.8,2.4,9.2c0,3.4-0.8,6.5-2.4,9.2
		c-1.6,2.7-3.8,4.8-6.6,6.3c-2.8,1.5-6.1,2.3-9.7,2.3C113.3,36.3,110.1,35.5,107.2,34z M110.9,24.7c1.5,1.6,3.5,2.4,6,2.4
		c1.6,0,3-0.4,4.3-1.1c1.2-0.7,2.2-1.8,2.9-3.1c0.7-1.3,1.1-2.8,1.1-4.5c0-1.7-0.4-3.2-1.1-4.5c-0.7-1.3-1.7-2.3-2.9-3.1
		c-1.2-0.7-2.7-1.1-4.3-1.1c-2.5,0-4.5,0.8-6,2.4c-1.5,1.6-2.3,3.7-2.3,6.2C108.6,21,109.4,23,110.9,24.7z"/>
	<g>
		
			<ellipse transform="matrix(0.2701 -0.9628 0.9628 0.2701 67.634 126.2676)" class="st1" cx="117.1" cy="18.5" rx="12.7" ry="12.7"/>
		<g>
			<path class="st2" d="M114.6,15.8c0,2.3,0.9,4.4,2.4,5.9c1.5-1.5,2.4-3.6,2.4-5.9c0-2.3-0.9-4.4-2.4-5.9
				C115.6,11.4,114.6,13.5,114.6,15.8z"/>
			<path class="st2" d="M109.3,22.7c1.6,1.7,3.7,2.5,5.9,2.6c0-2.1-0.7-4.3-2.4-6c-1.6-1.7-3.7-2.5-5.9-2.6
				C106.9,18.9,107.7,21.1,109.3,22.7z"/>
			<path class="st2" d="M124.9,22.7c-1.6,1.7-3.7,2.5-5.9,2.6c0-2.1,0.7-4.3,2.4-6c1.6-1.7,3.7-2.5,5.9-2.6
				C127.3,18.9,126.5,21.1,124.9,22.7z"/>
		</g>
	</g>
	<g>
		<g>
			<path class="st1" d="M2.4,60.8h5.8V38H2.8v-2.4h13.3V38h-5.3v22.9h5.8v2.4H2.4V60.8z"/>
			<path class="st1" d="M25.3,35.6h1.8l17.4,22.7V35.6h2.6v27.7h-1.8L27.9,40.5v22.7h-2.6V35.6z"/>
			<path class="st1" d="M57.7,35.6h9.6c6,0,9.7,3.4,9.7,9c0,5.7-3.6,9-9.7,9h-7v9.6h-2.6V35.6z M67.1,51.1c4.7,0,7.2-2.4,7.2-6.6
				c0-4.2-2.6-6.6-7.2-6.6h-6.8v13.1H67.1z"/>
			<path class="st1" d="M85.5,52.4V35.6h2.6v16.7c0,5.7,3,8.9,8.1,8.9c5.1,0,8.1-3.2,8.1-8.9V35.6h2.6v16.8c0,7-4.2,11.3-10.7,11.3
				C89.7,63.7,85.5,59.4,85.5,52.4z"/>
			<path class="st1" d="M123.4,38.1h-9.6v-2.5h21.9v2.5h-9.6v25.2h-2.6V38.1z"/>
		</g>
		<path class="st0" d="M17.7,1.2H24c0.6,0,1.2,0.4,1.4,1l12.8,31.3c0.4,1-0.3,2.1-1.4,2.1h-7.1c-0.7,0-1.3-0.4-1.5-1.1l-0.9-2.5
			c-0.2-0.6-0.8-1.1-1.5-1.1H15.7c-0.7,0-1.3,0.4-1.5,1.1l-0.9,2.5c-0.2,0.6-0.8,1.1-1.5,1.1h-7c-1.1,0-1.9-1.1-1.4-2.1L16.2,2.2
			C16.5,1.6,17,1.2,17.7,1.2z M24.1,21.5l-1.8-4.8c-0.5-1.3-2.4-1.3-2.9,0l-1.8,4.8c-0.4,1,0.4,2.1,1.5,2.1h3.6
			C23.7,23.7,24.5,22.6,24.1,21.5z"/>
		<path class="st0" d="M44,34.1c-2.7-1.5-4.9-3.6-6.4-6.3c-1.5-2.7-2.3-5.8-2.3-9.3c0-3.5,0.8-6.7,2.4-9.4s3.8-4.8,6.7-6.3
			c2.9-1.5,6.2-2.2,10-2.2c4,0,7.9,0.9,11.9,2.7c0.6,0.3,1,0.9,1,1.6v4.5c0,1.2-1.2,2-2.4,1.6c-3.3-1.3-6.4-2-9.3-2
			c-3.2,0-5.7,0.9-7.5,2.6c-1.8,1.7-2.7,4.1-2.7,7.1c0,2.8,0.8,5.1,2.3,6.8c1.5,1.7,3.6,2.6,6.1,2.6c2,0,3.6-0.5,5-1.6
			c0.6-0.5,1.1-1,1.5-1.6c0.8-1.1,0-2.7-1.4-2.7h-4.7c-0.9,0-1.7-0.8-1.7-1.7v-3.1c0-0.9,0.8-1.7,1.7-1.7h15.4
			c0.9,0,1.7,0.8,1.7,1.7c0,0,0,0,0,0c0,3.7-0.7,7-2.2,9.9c-1.5,2.9-3.6,5.1-6.3,6.6c-2.7,1.6-5.9,2.4-9.5,2.4
			C49.9,36.3,46.8,35.6,44,34.1z"/>
		<path class="st0" d="M73.2,2.8c0-0.9,0.7-1.6,1.6-1.6h15.5c2.6,0,4.9,0.5,6.8,1.5c1.9,1,3.4,2.4,4.5,4.3c1,1.9,1.6,4,1.6,6.5
			c0,2.4-0.5,4.6-1.5,6.4c-0.8,1.4-1.8,2.6-3.1,3.5c-0.7,0.5-0.9,1.4-0.5,2.1l4.3,7.7c0.6,1.1-0.2,2.4-1.4,2.4h-7.2
			c-0.6,0-1.2-0.3-1.4-0.9l-4.2-8.1c-0.3-0.5-0.8-0.9-1.4-0.9h-1.9c-0.9,0-1.6,0.7-1.6,1.6V34c0,0.9-0.7,1.6-1.6,1.6h-6.8
			c-0.9,0-1.6-0.7-1.6-1.6V2.8z M88.1,18.1c1.6,0,2.8-0.4,3.7-1.1c0.9-0.8,1.3-1.8,1.3-3.2s-0.4-2.5-1.3-3.2
			c-0.9-0.8-2.1-1.2-3.7-1.2h-3.5c-0.9,0-1.6,0.7-1.6,1.6v5.5c0,0.9,0.7,1.6,1.6,1.6H88.1z"/>
		<path class="st1" d="M154.3,63.1h-11.2c-4.1,0-7.5-3.3-7.5-7.5V8c0-4.1,3.3-7.5,7.5-7.5h11.2c4.1,0,7.5,3.3,7.5,7.5v47.6
			C161.8,59.8,158.4,63.1,154.3,63.1z"/>
		<g>
			<path class="st2" d="M150.3,46.2c1.1,0,1.9,0.4,2.5,1.2c0.6,0.8,0.9,1.9,0.9,3.5c0,0.6,0,1.1-0.1,1.6c-0.1,0.5-0.2,0.9-0.4,1.3
				c-0.2,0.4-0.4,0.6-0.7,0.8c-0.3,0.2-0.6,0.3-0.9,0.3c-0.3,0-0.6-0.1-0.8-0.2s-0.4-0.3-0.6-0.5c0.2-0.4,0.4-0.9,0.6-1.4
				c0.2-0.5,0.3-1.1,0.3-1.8c0-0.4-0.1-0.8-0.2-1c-0.1-0.2-0.3-0.3-0.5-0.3c-0.2,0-0.3,0.1-0.5,0.2c-0.1,0.2-0.2,0.4-0.3,0.8
				l-0.1,0.6c-0.2,1.2-0.6,2.1-1.1,2.7c-0.5,0.6-1.2,0.9-2.2,0.9c-0.5,0-1-0.1-1.4-0.3c-0.4-0.2-0.8-0.5-1-0.9
				c-0.3-0.4-0.5-0.9-0.6-1.4c-0.2-0.6-0.2-1.2-0.2-1.9c0-0.5,0-1,0.1-1.4c0.1-0.4,0.2-0.8,0.3-1.2c0.2-0.3,0.3-0.6,0.6-0.8
				c0.2-0.2,0.5-0.3,0.9-0.3c0.3,0,0.6,0.1,0.8,0.2c0.2,0.1,0.4,0.3,0.6,0.4c-0.1,0.1-0.1,0.3-0.2,0.5c-0.1,0.2-0.1,0.5-0.2,0.7
				c-0.1,0.3-0.1,0.5-0.2,0.8c0,0.3-0.1,0.5-0.1,0.7c0,0.5,0.1,0.8,0.2,1.1c0.1,0.2,0.3,0.4,0.5,0.4c0.2,0,0.3-0.1,0.4-0.2
				c0.1-0.1,0.2-0.4,0.3-0.8l0.1-0.6c0.3-1.3,0.7-2.3,1.3-2.8C148.7,46.5,149.4,46.2,150.3,46.2z"/>
			<path class="st2" d="M149.8,41c0.4,0,0.6-0.1,0.8-0.3c0.2-0.2,0.2-0.5,0.2-1c0-0.2,0-0.4-0.1-0.6c0-0.2-0.1-0.4-0.1-0.6
				c0.2-0.1,0.3-0.2,0.5-0.3c0.2-0.1,0.4-0.1,0.7-0.1c0.5,0,1,0.2,1.3,0.6s0.5,1.1,0.5,2.1c0,1.2-0.3,2.2-0.8,2.8
				c-0.6,0.7-1.5,1-2.7,1h-8.9c0-0.2-0.1-0.4-0.1-0.7c0-0.3-0.1-0.6-0.1-0.9c0-0.6,0.1-1.1,0.3-1.4c0.2-0.3,0.7-0.5,1.4-0.5h1.3
				v-2.7c0.2-0.1,0.3-0.2,0.6-0.2c0.2-0.1,0.5-0.1,0.8-0.1c0.5,0,0.8,0.1,1,0.3c0.2,0.2,0.3,0.5,0.3,0.9V41H149.8z"/>
			<path class="st2" d="M148.2,25.9c0.9,0,1.6,0.1,2.3,0.4c0.7,0.3,1.2,0.6,1.7,1.1c0.5,0.5,0.8,1,1,1.7c0.2,0.7,0.4,1.4,0.4,2.2
				c0,0.8-0.1,1.6-0.4,2.2c-0.2,0.7-0.6,1.2-1.1,1.7c-0.5,0.5-1,0.8-1.7,1.1c-0.7,0.3-1.4,0.4-2.2,0.4c-0.8,0-1.6-0.1-2.2-0.4
				c-0.7-0.3-1.2-0.6-1.7-1.1c-0.5-0.5-0.8-1-1.1-1.7c-0.2-0.7-0.4-1.4-0.4-2.2c0-0.8,0.1-1.6,0.4-2.2c0.3-0.7,0.6-1.2,1.1-1.7
				c0.5-0.5,1-0.8,1.7-1.1C146.7,26.1,147.4,25.9,148.2,25.9z M148.2,33.2c0.8,0,1.5-0.2,1.9-0.5c0.4-0.3,0.7-0.8,0.7-1.4
				c0-0.6-0.2-1-0.7-1.3c-0.5-0.3-1.1-0.5-1.9-0.5s-1.5,0.2-1.9,0.5c-0.4,0.3-0.7,0.8-0.7,1.3c0,0.6,0.2,1,0.7,1.3
				C146.8,33,147.4,33.2,148.2,33.2z"/>
			<path class="st2" d="M153.2,20.7c0,0.1,0.1,0.4,0.1,0.7c0,0.3,0.1,0.6,0.1,0.9c0,0.3,0,0.6-0.1,0.8c0,0.2-0.1,0.4-0.2,0.6
				c-0.1,0.2-0.3,0.3-0.5,0.4c-0.2,0.1-0.5,0.1-0.8,0.1h-6.2c-0.3,0-0.6-0.1-0.8-0.2c-0.2-0.1-0.4-0.3-0.6-0.5
				c-0.2-0.2-0.3-0.5-0.5-0.8c-0.1-0.3-0.3-0.7-0.4-1c-0.1-0.4-0.2-0.8-0.3-1.2c-0.1-0.4-0.1-0.8-0.1-1.2c0-0.7,0.1-1.2,0.4-1.6
				s0.7-0.6,1.3-0.6c0.2,0,0.4,0,0.6,0.1c0.2,0.1,0.4,0.1,0.5,0.2c0,0.3,0,0.6,0,0.9c0,0.3,0.1,0.6,0.1,0.9c0.1,0.3,0.1,0.6,0.2,0.8
				c0.1,0.3,0.1,0.5,0.2,0.7H153.2z"/>
			<path class="st2" d="M153.6,10.8c0,0.8-0.1,1.6-0.3,2.3c-0.2,0.7-0.6,1.3-1,1.8c-0.5,0.5-1,0.9-1.7,1.2c-0.7,0.3-1.5,0.4-2.4,0.4
				c-0.9,0-1.7-0.1-2.4-0.4c-0.7-0.3-1.2-0.7-1.6-1.2s-0.7-1-0.9-1.7c-0.2-0.6-0.3-1.3-0.3-1.9c0-0.7,0.1-1.4,0.3-2
				c0.2-0.6,0.5-1.1,0.9-1.6c0.4-0.4,0.9-0.8,1.4-1c0.5-0.2,1.1-0.4,1.8-0.4c0.5,0,0.8,0.1,1.1,0.4c0.2,0.3,0.4,0.6,0.5,1.1l0.8,5.1
				c0.5-0.2,0.8-0.5,1-0.9c0.2-0.5,0.3-1,0.3-1.6c0-0.6-0.1-1.1-0.2-1.6c-0.1-0.5-0.3-0.9-0.5-1.2c0.1-0.2,0.3-0.4,0.6-0.6
				c0.2-0.2,0.5-0.2,0.8-0.2c0.6,0,1.1,0.3,1.4,0.9c0.2,0.4,0.4,0.9,0.5,1.5C153.6,9.8,153.6,10.3,153.6,10.8z M145.5,11.3
				c0,0.3,0.1,0.6,0.2,0.9c0.1,0.2,0.3,0.4,0.4,0.6c0.2,0.2,0.4,0.3,0.6,0.3c0.2,0.1,0.4,0.1,0.7,0.1l-0.6-3.5
				c-0.3,0-0.6,0.2-0.8,0.5C145.6,10.4,145.5,10.8,145.5,11.3z"/>
		</g>
	</g>
</g>
</svg>
